<?xml version="1.0" standalone="no"?><!DOCTYPE svg PUBLIC "-//W3C//DTD SVG 1.1//EN" "http://www.w3.org/Graphics/SVG/1.1/DTD/svg11.dtd"><svg t="1784105261762" class="icon" viewBox="0 0 1024 1024" version="1.1" xmlns="http://www.w3.org/2000/svg" p-id="22786" xmlns:xlink="http://www.w3.org/1999/xlink" width="200" height="200"><path d="M350.165333 106.581333l-208.426666 104.96h416.853333l-208.426667-104.96z m154.794667 104.874667h-309.76v188.842667h115.2a56.448 56.448 0 0 1-2.56-15.701334V321.664a42.922667 42.922667 0 0 1 37.973333-47.232 42.581333 42.581333 0 0 1 46.506667 47.274667v62.933333a56.32 56.32 0 0 1-2.517333 15.744h115.2V211.2v0.213333z m218.624 18.218667c0-19.072-4.48-37.845333-13.184-54.784C710.4 125.482667 686.805333 85.333333 658.858667 85.333333c-27.946667 0-50.901333 39.808-51.84 89.6-8.746667 16.853333-13.226667 35.669333-13.226667 54.741334a89.770667 89.770667 0 0 0 52.266667 90.112v80.512h25.728V319.829333a89.770667 89.770667 0 0 0 51.84-90.069333l-0.042667-0.085333z m155.093333 0c0.042667-19.072-4.48-37.845333-13.184-54.784 0-49.408-23.594667-89.557333-51.541333-89.557334-27.946667 0-50.901333 39.808-51.84 89.6-8.704 16.853333-13.226667 35.669333-13.184 54.741334a89.770667 89.770667 0 0 0 52.266667 90.112v80.512h25.770666V319.829333a89.770667 89.770667 0 0 0 51.84-90.069333l-0.128-0.085333zM585.557333 981.333333h147.114667l30.549333-570.752h-95.786666L585.514667 981.333333z m303.530667-570.752h-103.509333L770.858667 981.333333h132.650666l-14.421333-570.752z m-243.968 0h-102.997333L363.818667 981.333333h183.68L645.12 410.581333z m266.112 0L941.653333 981.333333H981.333333V410.666667h-70.101333v-0.085334zM85.333333 661.546667v95.36h286.890667l37.077333-95.146667L85.333333 661.546667z m381.781334-148.138667l39.978666-102.869333H85.333333v102.826666h381.781334zM85.333333 539.904v95.146667h334.336l37.077334-95.146667H85.333333z m239.530667 338.432l37.12-95.146667H85.333333v95.146667h239.530667zM85.333333 904.746667v76.501333h199.424l29.696-76.501333H85.333333z" fill="#46B652" p-id="22787"></path></svg>