<?xml version="1.0" standalone="no"?><!DOCTYPE svg PUBLIC "-//W3C//DTD SVG 1.1//EN" "http://www.w3.org/Graphics/SVG/1.1/DTD/svg11.dtd"><svg t="1784269268479" class="icon" viewBox="0 0 1024 1024" version="1.1" xmlns="http://www.w3.org/2000/svg" p-id="5432" xmlns:xlink="http://www.w3.org/1999/xlink" width="200" height="200"><path d="M884.642069 64.774259H137.466861c-41.264822 0-74.717725 33.452903-74.717725 74.717725v747.176231c0 41.264822 33.452903 74.717725 74.717725 74.717725H884.642069c41.264822 0 74.717725-33.452903 74.717725-74.717725V139.491984c0-41.264822-33.452903-74.717725-74.717725-74.717725z m18.679431 803.214525c0 20.632923-16.72594 37.358863-37.358863 37.358862h-709.816344c-20.632923 0-37.358863-16.72594-37.358863-37.358862V158.171416c0-20.632923 16.72594-37.358863 37.358863-37.358863h709.817368c20.632923 0 37.358863 16.72594 37.358862 37.358863v709.817368zM436.33674 195.530278L193.505156 326.286298v485.664192l246.132769-149.435451 112.196315 93.397157 276.770558 74.717725v-373.588627l-242.832608-74.717725-149.43545-186.793291z" fill="#1296db" p-id="5433"></path></svg>