<?xml version="1.0" standalone="no"?><!DOCTYPE svg PUBLIC "-//W3C//DTD SVG 1.1//EN" "http://www.w3.org/Graphics/SVG/1.1/DTD/svg11.dtd"><svg t="1784105175646" class="icon" viewBox="0 0 1024 1024" version="1.1" xmlns="http://www.w3.org/2000/svg" p-id="18299" xmlns:xlink="http://www.w3.org/1999/xlink" width="200" height="200"><path d="M853.29 302c-10.66 15.123-142.8 205.92-156.25 392.951L709.02 912h-219l8.2-60.084H344.74L328.02 912H112.01L397.2 302H111.76L184 210h256.22l45.81-98h178.86l5.41 98h169.46L912 302h-58.71zM355.21 814.322h148.15l21.11-154.588H398.25z m60.36-216.783h117.39l13.68-100.155H443.45z m39.6-142.264h97.23l9.58-70.145H474.7z m27.99-100.533h82.97l7.08-51.857H497.6zM523.46 210h62.43l2.68-19.56h-59.66z m9.46-33.986h57.62l3.51-25.7h-53.97z m16.39-58.844l-5.93 21.3h52.28l2.91-21.3h-49.26zM675.37 302l9.38 170.015C701.09 429.215 743.2 340.183 784 302H675.37z" fill="#49D2FE" p-id="18300"></path></svg>