<?xml version="1.0" standalone="no"?><!DOCTYPE svg PUBLIC "-//W3C//DTD SVG 1.1//EN" "http://www.w3.org/Graphics/SVG/1.1/DTD/svg11.dtd"><svg t="1784105132289" class="icon" viewBox="0 0 1024 1024" version="1.1" xmlns="http://www.w3.org/2000/svg" p-id="15278" xmlns:xlink="http://www.w3.org/1999/xlink" width="200" height="200"><path d="M573.12 423.68L366.208 128H864a32 32 0 0 1 32 32v145.28l-322.88 118.4zM128 586.88V160a32 32 0 0 1 32-32h114.752l225.6 322.304L128.064 586.88z m768 298.016l-279.904-399.872L896 382.4v502.528zM160 896a32 32 0 0 1-32-32v-200l415.36-152.288 269.024 384.32L160 896z" fill="#FFFFFF" p-id="15279"></path><path d="M573.12 423.68L366.208 128H864a32 32 0 0 1 32 32v145.28l-322.88 118.4zM128 586.88V160a32 32 0 0 1 32-32h114.752l225.6 322.304L128.064 586.88z m457.248-201.728l278.784-102.208L864 160l-436.352 0.032 157.6 225.12zM160.032 541.056l290.304-106.464-192.224-274.56H160l0.032 381.024z m736 343.84l-279.936-399.872L896 382.4v502.528z m-32-101.472v-355.2l-197.856 72.544 197.856 282.656z" fill="#5D6D7E" opacity=".498" p-id="15280"></path><path d="M128 912l-16-225.088 425.216-155.648L803.296 912H128z" fill="#C49F74" fill-opacity=".3" p-id="15281"></path><path d="M128 928a32 32 0 0 1-32-32v-220.288L543.296 512l290.72 416H128z m403.168-377.472L128.032 698.112 128 896l644.608 0.032-241.44-345.504z" fill="#C49F74" p-id="15282"></path><path d="M559.264 591.488h-96v-96h96z" fill="#FFFFFF" p-id="15283"></path><path d="M447.264 607.488v-128h128v128h-128z m32-31.968h64v-64h-64v64z" fill="#C49F74" p-id="15284"></path></svg>